solid OpenSCAD_Model
  facet normal -1 0 0
    outer loop
      vertex 0 0 0
      vertex 0 0 3.05
      vertex 0 4.6 0
    endloop
  endfacet
  facet normal -1 0 0
    outer loop
      vertex 0 4.6 0
      vertex 0 0 3.05
      vertex 0 4.6 3.05
    endloop
  endfacet
  facet normal 0 -1 0
    outer loop
      vertex 0 0 3.05
      vertex 0 0 0
      vertex 5.75 0 0
    endloop
  endfacet
  facet normal 0 -1 0
    outer loop
      vertex 5.75 0 3.05
      vertex 0 0 3.05
      vertex 5.75 0 0
    endloop
  endfacet
  facet normal 0 0 -1
    outer loop
      vertex 0 0 0
      vertex 0 4.6 0
      vertex 5.75 0 0
    endloop
  endfacet
  facet normal 0 0 -1
    outer loop
      vertex 5.75 0 0
      vertex 0 4.6 0
      vertex 5.75 4.6 0
    endloop
  endfacet
  facet normal 0 1 0
    outer loop
      vertex 0 4.6 0
      vertex 0 4.6 3.05
      vertex 5.75 4.6 0
    endloop
  endfacet
  facet normal 0 1 0
    outer loop
      vertex 5.75 4.6 0
      vertex 0 4.6 3.05
      vertex 5.75 4.6 3.05
    endloop
  endfacet
  facet normal 0 0 1
    outer loop
      vertex 0.05 0.05 3.05
      vertex 0 0 3.05
      vertex 5.75 0 3.05
    endloop
  endfacet
  facet normal 0 0 1
    outer loop
      vertex 0 4.6 3.05
      vertex 0 0 3.05
      vertex 0.05 0.05 3.05
    endloop
  endfacet
  facet normal 0 0 1
    outer loop
      vertex 0.05 4.55 3.05
      vertex 5.7 4.55 3.05
      vertex 0 4.6 3.05
    endloop
  endfacet
  facet normal 0 0 1
    outer loop
      vertex 0 4.6 3.05
      vertex 0.05 0.05 3.05
      vertex 0.05 4.55 3.05
    endloop
  endfacet
  facet normal 0 0 1
    outer loop
      vertex 5.75 4.6 3.05
      vertex 5.7 4.55 3.05
      vertex 5.75 0 3.05
    endloop
  endfacet
  facet normal 0 0 1
    outer loop
      vertex 5.75 4.6 3.05
      vertex 0 4.6 3.05
      vertex 5.7 4.55 3.05
    endloop
  endfacet
  facet normal 0 0 1
    outer loop
      vertex 5.7 4.55 3.05
      vertex 5.7 0.05 3.05
      vertex 5.75 0 3.05
    endloop
  endfacet
  facet normal 0 0 1
    outer loop
      vertex 5.7 0.05 3.05
      vertex 0.05 0.05 3.05
      vertex 5.75 0 3.05
    endloop
  endfacet
  facet normal 1 0 0
    outer loop
      vertex 5.75 0 3.05
      vertex 5.75 0 0
      vertex 5.75 4.6 0
    endloop
  endfacet
  facet normal 1 0 0
    outer loop
      vertex 5.75 4.6 3.05
      vertex 5.75 0 3.05
      vertex 5.75 4.6 0
    endloop
  endfacet
  facet normal 1 0 0
    outer loop
      vertex 0.05 4.55 0.05
      vertex 0.05 4.55 3.05
      vertex 0.05 0.05 3.05
    endloop
  endfacet
  facet normal 1 0 0
    outer loop
      vertex 0.05 0.05 0.05
      vertex 0.05 4.55 0.05
      vertex 0.05 0.05 3.05
    endloop
  endfacet
  facet normal 0 1 0
    outer loop
      vertex 5.7 0.05 3.05
      vertex 5.7 0.05 0.05
      vertex 0.05 0.05 3.05
    endloop
  endfacet
  facet normal 0 1 0
    outer loop
      vertex 0.05 0.05 3.05
      vertex 5.7 0.05 0.05
      vertex 0.05 0.05 0.05
    endloop
  endfacet
  facet normal -1 0 0
    outer loop
      vertex 5.7 4.55 3.05
      vertex 5.7 4.55 0.05
      vertex 5.7 0.05 3.05
    endloop
  endfacet
  facet normal -1 0 0
    outer loop
      vertex 5.7 0.05 3.05
      vertex 5.7 4.55 0.05
      vertex 5.7 0.05 0.05
    endloop
  endfacet
  facet normal 0 -1 0
    outer loop
      vertex 5.7 4.55 0.05
      vertex 5.7 4.55 3.05
      vertex 0.05 4.55 3.05
    endloop
  endfacet
  facet normal 0 -1 0
    outer loop
      vertex 0.05 4.55 0.05
      vertex 5.7 4.55 0.05
      vertex 0.05 4.55 3.05
    endloop
  endfacet
  facet normal 0 0 1
    outer loop
      vertex 5.7 0.05 0.05
      vertex 5.7 4.55 0.05
      vertex 0.05 4.55 0.05
    endloop
  endfacet
  facet normal 0 0 1
    outer loop
      vertex 0.05 0.05 0.05
      vertex 5.7 0.05 0.05
      vertex 0.05 4.55 0.05
    endloop
  endfacet
endsolid OpenSCAD_Model
